<?xml version="1.0" encoding="utf-8"?>
<!-- Generator: Adobe Illustrator 20.1.0, SVG Export Plug-In . SVG Version: 6.00 Build 0)  -->
<svg version="1.1" id="Ebene_1" xmlns="http://www.w3.org/2000/svg" xmlns:xlink="http://www.w3.org/1999/xlink" x="0px" y="0px"
	 viewBox="0 0 398 288.2" style="enable-background:new 0 0 398 288.2;" xml:space="preserve">
<style type="text/css">
	.st0{display:none;}
	.st1{display:inline;}
	.st2{fill:#FFFFFF;}
	.st3{fill:#002635;}
	.st4{fill:url(#SVGID_1_);}
	.st5{fill:url(#SVGID_2_);}
	.st6{fill:url(#SVGID_3_);}
	.st7{fill:url(#SVGID_4_);}
</style>
<g id="mono" class="st0">
	<g id="font_1_" class="st1">
		<path class="st2" d="M40.1,260c-2.8,4.8-8.9,7.4-14.8,7.4c-11.5,0-21.3-8.6-21.3-22c0-13.4,9.8-21.9,21.3-21.9
			c5.8,0,12,2.4,14.8,7.2v-2.6c0-2.2,1.8-4.1,4-4.1c2.3,0,4.1,1.9,4.1,4.1v34.6c0,2.2-1.8,4.1-4.1,4.1c-2.2,0-4-1.9-4-4.1V260z
			 M26.1,231.6c-7.6,0-13.7,5.4-13.7,13.8c0,8.3,6.1,14,13.7,14c7.5,0,13.9-5.1,13.9-14C40,236.3,32.8,231.6,26.1,231.6z"/>
		<path class="st2" d="M67.8,283c0,2.2-1.8,4.1-4.1,4.1c-2.2,0-4-1.9-4-4.1v-54.9c0-2.2,1.8-4.1,4-4.1c2.3,0,4.1,1.9,4.1,4.1v2.9
			c2.8-4.8,8.8-7.5,14.7-7.5c11.5,0,21.1,8.7,21.1,22s-9.5,21.8-21.1,21.8c-5.8,0-11.9-2.3-14.7-7.2V283z M81.6,259.4
			c7.6,0,13.6-5.3,13.6-13.7c0-8.4-6-14.1-13.6-14.1c-7.4,0-13.8,5.2-13.8,14.1C67.9,254.7,74.9,259.4,81.6,259.4z"/>
		<path class="st2" d="M120.6,283c0,2.2-1.8,4.1-4.1,4.1c-2.2,0-4-1.9-4-4.1v-54.9c0-2.2,1.8-4.1,4-4.1c2.3,0,4.1,1.9,4.1,4.1v2.9
			c2.8-4.8,8.8-7.5,14.7-7.5c11.5,0,21.1,8.7,21.1,22s-9.5,21.8-21.1,21.8c-5.8,0-11.9-2.3-14.7-7.2V283z M134.5,259.4
			c7.6,0,13.6-5.3,13.6-13.7c0-8.4-6-14.1-13.6-14.1c-7.4,0-13.8,5.2-13.8,14.1C120.7,254.7,127.7,259.4,134.5,259.4z"/>
		<path class="st2" d="M164.7,224.4c-2.3,0-4-1.9-4-4.1c0-0.3,0.1-0.6,0.2-1c2.6-7.6,9.5-12.2,17.6-12.2c10.3,0,18.4,7,18.4,17.4
			c0,5.7-2.6,10.9-6.4,15.2c-7.6,8.8-7.7,9.2-15.9,18.8h18.8c2.2,0,4,1.8,4,4s-1.9,4-4,4h-29.9c-1.6,0-2.8-1.1-2.8-2.6
			c0-1,0.7-1.9,1.4-2.6l22.5-27.3c2.6-3.2,4.3-6.2,4.3-9.6c0-5.7-4.7-9.3-10.4-9.3c-4.2,0-8,2.2-9.7,6.1
			C168,223.2,166.5,224.4,164.7,224.4z"/>
		<path class="st2" d="M215,230.8c2.5-5,8.5-7.2,13.1-7.2c10.4,0,16.2,6.8,16.2,18.6v20.6c0,2.2-1.8,4.1-4.1,4.1c-2.2,0-4-1.9-4-4.1
			v-20.1c0-7-3.5-11.2-9.3-11.2c-5.9,0-11.9,3.3-11.9,12.2v19c0,2.2-1.8,4.1-4.1,4.1c-2.2,0-4-1.9-4-4.1v-34.6c0-2.2,1.8-4.1,4-4.1
			c2.3,0,4.1,1.9,4.1,4.1V230.8z"/>
		<path class="st2" d="M259,203.8c3.2,0,5.7,2.2,5.7,5.3c0,3.1-2.5,5.3-5.7,5.3c-3.1,0-5.7-2.2-5.7-5.3
			C253.4,206,256,203.8,259,203.8z M263.2,228.1c0-2.2-1.8-4.1-4.1-4.1c-2.2,0-4,1.9-4,4.1v34.6c0,2.2,1.8,4.1,4,4.1
			c2.3,0,4.1-1.9,4.1-4.1V228.1z"/>
		<path class="st2" d="M292.9,279.7c9.1,0,14.9-5.1,14.9-19.1c0-0.4,0-0.6-0.1-1c-2.5,5-8.9,7.7-14.8,7.7
			c-11.5,0-21.3-8.5-21.3-21.8c0-13.4,9.8-22,21.3-22c5.8,0,12,2.6,14.8,7.5v-2.9c0-2.2,1.8-4.1,4-4.1c2.3,0,4.1,1.9,4.1,4.1v31.9
			c-0.1,19.8-9.2,27.4-23,27.4c-6.7,0-13-3-17.2-8.5c-1.2-1.7-0.5-4.2,1.3-5.3c1.7-1.1,4-0.2,5.6,1.6
			C285.3,278.2,289.2,279.7,292.9,279.7z M293.7,231.6c-7.6,0-13.7,5.8-13.7,14c0,8.5,6.1,13.9,13.7,13.9c6.8,0,14-5,14-13.9
			C307.6,236.5,301.2,231.6,293.7,231.6z"/>
		<path class="st2" d="M366.3,262.8c0,2.2-1.8,4.1-4.1,4.1c-2.2,0-4-1.9-4-4.1v-20.1c0-6.9-4.1-11.2-9.9-11.2s-12.8,3.2-12.8,12.2
			v19c0,2.2-1.8,4.1-4.1,4.1c-2.2,0-4-1.9-4-4.1v-57.5c0-2.2,1.8-4.1,4-4.1c2.3,0,4.1,1.9,4.1,4.1v25.5c2.5-5,9.3-7.2,13.9-7.2
			c10.5,0,17.1,6.8,17,18.6V262.8z"/>
		<path class="st2" d="M374.6,231.4c-1.9,0-3.5-1.5-3.5-3.5c0-1.9,1.6-3.4,3.5-3.4h4.5v-12.1c0-2.2,1.8-4.1,4-4.1
			c2.3,0,4.1,1.9,4.1,4.1v12.1h5.9c1.9,0,3.5,1.5,3.5,3.5c0,1.9-1.6,3.4-3.5,3.4h-5.9v31.4c0,2.2-1.8,4.1-4.1,4.1
			c-2.2,0-4-1.9-4-4.1v-31.4H374.6z"/>
	</g>
	<g id="icon_x5F_mono" class="st1">
		<g>
			<path class="st2" d="M199,0c-40.8,0-74,33.2-74,74c0,39.8,54.6,108,74,108s74-68.2,74-108C273,33.2,239.8,0,199,0z M199,172
				c-4.3-0.5-19.3-11.5-36.9-35.9C145.4,112.9,135,89.1,135,74c0-35.3,28.7-64,64-64c35.3,0,64,28.7,64,64
				c0,15.1-10.4,38.9-27.1,62.1C218.3,160.5,203.2,171.4,199,172z"/>
		</g>
		<path class="st2" d="M141,74c0,0,12-16.5,58-16.5S257,74,257,74s-12,18.2-58,18.2S141,74,141,74z"/>
		<g>
			<path class="st2" d="M199,96.2c-34.3,0-50.7-10-57.5-15.9c5.1,31.8,44.7,79.7,57.5,85.4c12.8-5.7,52.4-53.5,57.5-85.3
				C249.7,86.3,233.3,96.2,199,96.2z"/>
		</g>
	</g>
</g>
<g id="full">
	<g id="font">
		<path class="st3" d="M40.1,260c-2.8,4.8-8.9,7.4-14.8,7.4c-11.5,0-21.3-8.6-21.3-22c0-13.4,9.8-21.9,21.3-21.9
			c5.8,0,12,2.4,14.8,7.2v-2.6c0-2.2,1.8-4.1,4-4.1c2.3,0,4.1,1.9,4.1,4.1v34.6c0,2.2-1.8,4.1-4.1,4.1c-2.2,0-4-1.9-4-4.1V260z
			 M26.1,231.6c-7.6,0-13.7,5.4-13.7,13.8c0,8.3,6.1,14,13.7,14c7.5,0,13.9-5.1,13.9-14C40,236.3,32.8,231.6,26.1,231.6z"/>
		<path class="st3" d="M67.8,283c0,2.2-1.8,4.1-4.1,4.1c-2.2,0-4-1.9-4-4.1v-54.9c0-2.2,1.8-4.1,4-4.1c2.3,0,4.1,1.9,4.1,4.1v2.9
			c2.8-4.8,8.8-7.5,14.7-7.5c11.5,0,21.1,8.7,21.1,22s-9.5,21.8-21.1,21.8c-5.8,0-11.9-2.3-14.7-7.2V283z M81.6,259.4
			c7.6,0,13.6-5.3,13.6-13.7c0-8.4-6-14.1-13.6-14.1c-7.4,0-13.8,5.2-13.8,14.1C67.9,254.7,74.9,259.4,81.6,259.4z"/>
		<path class="st3" d="M120.6,283c0,2.2-1.8,4.1-4.1,4.1c-2.2,0-4-1.9-4-4.1v-54.9c0-2.2,1.8-4.1,4-4.1c2.3,0,4.1,1.9,4.1,4.1v2.9
			c2.8-4.8,8.8-7.5,14.7-7.5c11.5,0,21.1,8.7,21.1,22s-9.5,21.8-21.1,21.8c-5.8,0-11.9-2.3-14.7-7.2V283z M134.5,259.4
			c7.6,0,13.6-5.3,13.6-13.7c0-8.4-6-14.1-13.6-14.1c-7.4,0-13.8,5.2-13.8,14.1C120.7,254.7,127.7,259.4,134.5,259.4z"/>
		<path class="st3" d="M164.7,224.4c-2.3,0-4-1.9-4-4.1c0-0.3,0.1-0.6,0.2-1c2.6-7.6,9.5-12.2,17.6-12.2c10.3,0,18.4,7,18.4,17.4
			c0,5.7-2.6,10.9-6.4,15.2c-7.6,8.8-7.7,9.2-15.9,18.8h18.8c2.2,0,4,1.8,4,4s-1.9,4-4,4h-29.9c-1.6,0-2.8-1.1-2.8-2.6
			c0-1,0.7-1.9,1.4-2.6l22.5-27.3c2.6-3.2,4.3-6.2,4.3-9.6c0-5.7-4.7-9.3-10.4-9.3c-4.2,0-8,2.2-9.7,6.1
			C168,223.2,166.5,224.4,164.7,224.4z"/>
		<path class="st3" d="M215,230.8c2.5-5,8.5-7.2,13.1-7.2c10.4,0,16.2,6.8,16.2,18.6v20.6c0,2.2-1.8,4.1-4.1,4.1c-2.2,0-4-1.9-4-4.1
			v-20.1c0-7-3.5-11.2-9.3-11.2c-5.9,0-11.9,3.3-11.9,12.2v19c0,2.2-1.8,4.1-4.1,4.1c-2.2,0-4-1.9-4-4.1v-34.6c0-2.2,1.8-4.1,4-4.1
			c2.3,0,4.1,1.9,4.1,4.1V230.8z"/>
		<path class="st3" d="M259,203.8c3.2,0,5.7,2.2,5.7,5.3c0,3.1-2.5,5.3-5.7,5.3c-3.1,0-5.7-2.2-5.7-5.3
			C253.4,206,256,203.8,259,203.8z M263.2,228.1c0-2.2-1.8-4.1-4.1-4.1c-2.2,0-4,1.9-4,4.1v34.6c0,2.2,1.8,4.1,4,4.1
			c2.3,0,4.1-1.9,4.1-4.1V228.1z"/>
		<path class="st3" d="M292.9,279.7c9.1,0,14.9-5.1,14.9-19.1c0-0.4,0-0.6-0.1-1c-2.5,5-8.9,7.7-14.8,7.7
			c-11.5,0-21.3-8.5-21.3-21.8c0-13.4,9.8-22,21.3-22c5.8,0,12,2.6,14.8,7.5v-2.9c0-2.2,1.8-4.1,4-4.1c2.3,0,4.1,1.9,4.1,4.1v31.9
			c-0.1,19.8-9.2,27.4-23,27.4c-6.7,0-13-3-17.2-8.5c-1.2-1.7-0.5-4.2,1.3-5.3c1.7-1.1,4-0.2,5.6,1.6
			C285.3,278.2,289.2,279.7,292.9,279.7z M293.7,231.6c-7.6,0-13.7,5.8-13.7,14c0,8.5,6.1,13.9,13.7,13.9c6.8,0,14-5,14-13.9
			C307.6,236.5,301.2,231.6,293.7,231.6z"/>
		<path class="st3" d="M366.3,262.8c0,2.2-1.8,4.1-4.1,4.1c-2.2,0-4-1.9-4-4.1v-20.1c0-6.9-4.1-11.2-9.9-11.2s-12.8,3.2-12.8,12.2
			v19c0,2.2-1.8,4.1-4.1,4.1c-2.2,0-4-1.9-4-4.1v-57.5c0-2.2,1.8-4.1,4-4.1c2.3,0,4.1,1.9,4.1,4.1v25.5c2.5-5,9.3-7.2,13.9-7.2
			c10.5,0,17.1,6.8,17,18.6V262.8z"/>
		<path class="st3" d="M374.6,231.4c-1.9,0-3.5-1.5-3.5-3.5c0-1.9,1.6-3.4,3.5-3.4h4.5v-12.1c0-2.2,1.8-4.1,4-4.1
			c2.3,0,4.1,1.9,4.1,4.1v12.1h5.9c1.9,0,3.5,1.5,3.5,3.5c0,1.9-1.6,3.4-3.5,3.4h-5.9v31.4c0,2.2-1.8,4.1-4.1,4.1
			c-2.2,0-4-1.9-4-4.1v-31.4H374.6z"/>
	</g>
	<g id="icon_x5F_color">
		<g>
			<linearGradient id="SVGID_1_" gradientUnits="userSpaceOnUse" x1="198.9766" y1="182" x2="198.9766" y2="-9.094947e-13">
				<stop  offset="0" style="stop-color:#002635"/>
				<stop  offset="1" style="stop-color:#AB1A25"/>
			</linearGradient>
			<path class="st4" d="M199,0c-40.8,0-74,33.2-74,74c0,39.8,54.6,108,74,108s74-68.2,74-108C273,33.2,239.8,0,199,0z M199,172
				c-4.3-0.5-19.3-11.5-36.9-35.9C145.4,112.9,135,89.1,135,74c0-35.3,28.7-64,64-64c35.3,0,64,28.7,64,64
				c0,15.1-10.4,38.9-27.1,62.1C218.3,160.5,203.2,171.4,199,172z"/>
		</g>
		<g>
			<linearGradient id="SVGID_2_" gradientUnits="userSpaceOnUse" x1="154.9444" y1="36.0461" x2="243.0086" y2="124.1104">
				<stop  offset="0" style="stop-color:#002635;stop-opacity:0"/>
				<stop  offset="1" style="stop-color:#013440"/>
			</linearGradient>
			<path class="st5" d="M199,165.7c-13.7-6.1-58-60.4-58-91.7c0-32,26-58,58-58c32,0,58,26,58,58C257,105.3,212.6,159.7,199,165.7z"
				/>
		</g>
		<g>
			<linearGradient id="SVGID_3_" gradientUnits="userSpaceOnUse" x1="198.9766" y1="165.7246" x2="198.9766" y2="74">
				<stop  offset="0" style="stop-color:#AB1A25"/>
				<stop  offset="0.33" style="stop-color:#AB1A25"/>
				<stop  offset="1" style="stop-color:#D97925"/>
			</linearGradient>
			<path class="st6" d="M257,74c0,31.3-44.3,85.7-58,91.7c-13.7-6.1-58-60.4-58-91.7H257z"/>
		</g>
		<linearGradient id="SVGID_4_" gradientUnits="userSpaceOnUse" x1="169.8751" y1="103.1839" x2="228.078" y2="44.981">
			<stop  offset="0" style="stop-color:#D97925"/>
			<stop  offset="1" style="stop-color:#AB1A25"/>
		</linearGradient>
		<path class="st7" d="M141,74c0,0,12-16.5,58-16.5S257,74,257,74s-12,18.2-58,18.2S141,74,141,74z"/>
	</g>
</g>
</svg>
