<?xml version="1.0" encoding="utf-8"?>
<!-- Generator: Adobe Illustrator 20.1.0, SVG Export Plug-In . SVG Version: 6.00 Build 0)  -->
<svg version="1.1" xmlns="http://www.w3.org/2000/svg" xmlns:xlink="http://www.w3.org/1999/xlink" x="0px" y="0px"
	 viewBox="0 0 1024 1024" style="enable-background:new 0 0 1024 1024;" xml:space="preserve">
<style type="text/css">
	.st0{display:none;}
	.st1{display:inline;}
	.st2{fill-rule:evenodd;clip-rule:evenodd;fill:#FFFFFF;}
	.st3{fill-rule:evenodd;clip-rule:evenodd;}
	.st4{fill:#002635;}
	.st5{fill:#FFFFFF;}
	.st6{display:inline;fill:#FFFFFF;}
	.st7{fill:url(#SVGID_1_);}
	.st8{fill:url(#SVGID_2_);}
	.st9{fill:url(#SVGID_3_);}
	.st10{fill:url(#SVGID_4_);}
</style>
<g id="The_Grid_System_1_" class="st0">
	<g id="main" class="st1">
		<g>
			<path class="st2" d="M256,1023.5c-42.6,0-80.4-5.4-112.2-16C112,996.9,85.1,980.8,64,959.5c-21.1-21.2-37.1-48-47.7-79.8
				C5.8,848,0.5,810.4,0.5,768V256c0-42.4,5.3-80,15.9-111.8C26.9,112.4,42.9,85.6,64,64.4c21.1-21.2,48-37.3,79.8-47.9
				c31.8-10.6,69.6-16,112.2-16h512c84.5,0,148.9,21.5,191.4,64c42.5,42.5,64.1,106.9,64.1,191.5v512c0,42.5-5.4,80.1-15.9,111.9
				c-10.6,31.8-26.7,58.6-47.8,79.8c-21.2,21.2-48,37.3-79.8,47.9c-31.8,10.6-69.5,16-112,16H256z"/>
		</g>
		<g>
			<path d="M768,1c42.2,0,79.7,5.4,111.4,16c31.7,10.6,58.5,26.7,79.6,47.8c21.2,21.2,37.3,47.9,47.9,79.6
				c10.6,31.8,16,69.3,16,111.5v512c0,42.4-5.4,80-15.9,111.7c-10.5,31.7-26.6,58.5-47.7,79.6c-21.1,21.1-47.9,37.2-79.6,47.7
				c-31.8,10.6-69.4,15.9-111.8,15.9H256c-42.6,0-80.3-5.4-112.1-16c-31.7-10.6-58.5-26.7-79.6-47.8c-21-21.1-37-47.9-47.5-79.6
				C6.3,847.9,1,810.3,1,768V256c0-42.4,5.3-79.9,15.8-111.6c10.5-31.7,26.5-58.5,47.6-79.6C85.5,43.6,112.2,27.5,144,17
				C175.8,6.4,213.5,1,256,1H768 M768,0H256C84.5,0,0,85.5,0,256v512c0,170.4,84.4,256,256,256h512c171,0,256-85.2,256-256V256
				C1024,85.7,938,0,768,0L768,0z"/>
		</g>
	</g>
	<g id="_x38_96" class="st1">
		<g>
			<path class="st2" d="M512,959.5c-60.4,0-119-11.8-174.2-35.2c-53.3-22.5-101.1-54.8-142.2-95.9s-73.4-89-95.9-142.2
				C76.3,631,64.5,572.4,64.5,512s11.8-119,35.2-174.2c22.5-53.3,54.8-101.1,95.9-142.2s89-73.4,142.2-95.9
				C393,76.3,451.6,64.5,512,64.5s119,11.8,174.2,35.2c53.3,22.5,101.1,54.8,142.2,95.9s73.4,89,95.9,142.2
				c23.3,55.2,35.2,113.8,35.2,174.2s-11.8,119-35.2,174.2c-22.5,53.3-54.8,101.1-95.9,142.2s-89,73.4-142.2,95.9
				C631,947.7,572.4,959.5,512,959.5z"/>
		</g>
		<g>
			<path d="M512,65c60.3,0,118.9,11.8,174,35.1c53.2,22.5,101,54.7,142.1,95.8s73.3,88.9,95.8,142.1c23.3,55.1,35.1,113.6,35.1,174
				s-11.8,118.9-35.1,174c-22.5,53.2-54.7,101-95.8,142.1s-88.9,73.3-142.1,95.8C630.9,947.2,572.3,959,512,959
				s-118.9-11.8-174-35.1c-53.2-22.5-101-54.7-142.1-95.8s-73.3-88.9-95.8-142.1C76.8,630.9,65,572.3,65,512s11.8-118.9,35.1-174
				c22.5-53.2,54.7-101,95.8-142.1s88.9-73.3,142.1-95.8C393.1,76.8,451.7,65,512,65 M512,64C264.6,64,64,264.6,64,512
				s200.6,448,448,448s448-200.6,448-448S759.4,64,512,64L512,64z"/>
		</g>
	</g>
	<g id="_x35_44" class="st1">
		<g>
			<path class="st2" d="M512,783.5c-72.5,0-140.7-28.2-192-79.5c-51.3-51.3-79.5-119.5-79.5-192s28.2-140.7,79.5-192
				c51.3-51.3,119.5-79.5,192-79.5s140.7,28.2,192,79.5c51.3,51.3,79.5,119.5,79.5,192S755.3,652.7,704,704S584.5,783.5,512,783.5z"
				/>
		</g>
		<g>
			<path d="M512,241c36.6,0,72.1,7.2,105.5,21.3c32.3,13.6,61.3,33.2,86.1,58.1c24.9,24.9,44.4,53.9,58.1,86.1
				C775.8,439.9,783,475.4,783,512s-7.2,72.1-21.3,105.5c-13.6,32.3-33.2,61.3-58.1,86.1c-24.9,24.9-53.9,44.4-86.1,58.1
				C584.1,775.8,548.6,783,512,783s-72.1-7.2-105.5-21.3c-32.3-13.6-61.3-33.2-86.1-58.1c-24.9-24.9-44.4-53.9-58.1-86.1
				C248.2,584.1,241,548.6,241,512s7.2-72.1,21.3-105.5c13.6-32.3,33.2-61.3,58.1-86.1c24.9-24.9,53.9-44.4,86.1-58.1
				C439.9,248.2,475.4,241,512,241 M512,240c-150.2,0-272,121.8-272,272s121.8,272,272,272s272-121.8,272-272S662.2,240,512,240
				L512,240z"/>
		</g>
	</g>
	<g id="_x33_84" class="st1">
		<g>
			<path class="st2" d="M512,703.5c-105.6,0-191.5-85.9-191.5-191.5c0-105.6,85.9-191.5,191.5-191.5c105.6,0,191.5,85.9,191.5,191.5
				C703.5,617.6,617.6,703.5,512,703.5z"/>
		</g>
		<g>
			<path d="M512,321c25.8,0,50.8,5,74.3,15c22.7,9.6,43.2,23.4,60.7,40.9c17.5,17.5,31.3,38,40.9,60.7c10,23.5,15,48.6,15,74.3
				s-5,50.8-15,74.3c-9.6,22.7-23.4,43.2-40.9,60.7c-17.5,17.5-38,31.3-60.7,40.9c-23.5,10-48.6,15-74.3,15s-50.8-5-74.3-15
				c-22.7-9.6-43.2-23.4-60.7-40.9c-17.5-17.5-31.3-38-40.9-60.7c-10-23.5-15-48.6-15-74.3s5-50.8,15-74.3
				c9.6-22.7,23.4-43.2,40.9-60.7c17.5-17.5,38-31.3,60.7-40.9C461.2,326,486.2,321,512,321 M512,320c-106,0-192,86-192,192
				s86,192,192,192s192-86,192-192S618,320,512,320L512,320z"/>
		</g>
	</g>
	<g id="Lines_1_" class="st1">
		<g id="_x37_">
			<g>
				
					<rect x="512" y="-211.6" transform="matrix(0.7071 -0.7071 0.7071 0.7071 -212.2845 512.5)" class="st3" width="1" height="1448.2"/>
			</g>
		</g>
		<g id="_x36_">
			<g>
				
					<rect x="-211.6" y="512" transform="matrix(0.7071 -0.7071 0.7071 0.7071 -212.2845 512.5)" class="st3" width="1448.2" height="1"/>
			</g>
		</g>
		<g id="_x35_">
			<g>
				<rect x="0.5" y="64" class="st3" width="1024" height="1"/>
			</g>
		</g>
		<g id="_x34_">
			<g>
				<rect x="0.5" y="320" class="st3" width="1024" height="1"/>
			</g>
		</g>
		<g id="_x33_">
			<g>
				<rect x="0.5" y="240" class="st3" width="1024" height="1"/>
			</g>
		</g>
		<g id="_x32_">
			<g>
				<rect x="512" y="0.5" class="st3" width="1" height="1024"/>
			</g>
		</g>
		<g id="_x31_">
			<g>
				<rect x="0.5" y="512" class="st3" width="1024" height="1"/>
			</g>
		</g>
	</g>
</g>
<g id="appicon">
	<g id="mono">
		<rect id="bg_1_" class="st4" width="1024" height="1024"/>
		<g id="icon_x5F_mono">
			<g>
				<path class="st5" d="M512,71.5c-197.5,0-358.2,160.7-358.2,358.2c0,192.8,264.2,522.8,358.2,522.8s358.2-330,358.2-522.8
					C870.2,232.2,709.5,71.5,512,71.5z M512,904.1c-20.7-2.6-93.3-55.7-178.5-173.7c-81-112.2-131.3-227.4-131.3-300.7
					c0-170.8,139-309.8,309.8-309.8c170.8,0,309.8,139,309.8,309.8c0,73.3-50.3,188.5-131.3,300.7
					C605.3,848.4,532.6,901.4,512,904.1z"/>
			</g>
			<path class="st5" d="M231.2,429.7c0,0,58.1-79.9,280.8-79.9s280.8,79.9,280.8,79.9s-58.1,88.3-280.8,88.3
				S231.2,429.7,231.2,429.7z"/>
			<g>
				<path class="st5" d="M512,537.4c-166.1,0-245.6-48.4-278.1-76.8C258.5,614.5,450.2,846.2,512,873.7
					c61.8-27.5,253.5-259.2,278.1-413.2C757.6,489.1,678.1,537.4,512,537.4z"/>
			</g>
		</g>
	</g>
	<g id="color" class="st0">
		<rect id="bg" class="st6" width="1024" height="1024"/>
		<g id="icon_x5F_color" class="st1">
			<g>
				<linearGradient id="SVGID_1_" gradientUnits="userSpaceOnUse" x1="512" y1="952.5" x2="512" y2="71.5">
					<stop  offset="0" style="stop-color:#002635"/>
					<stop  offset="1" style="stop-color:#AB1A25"/>
				</linearGradient>
				<path class="st7" d="M512,71.5c-197.5,0-358.2,160.7-358.2,358.2c0,192.8,264.2,522.8,358.2,522.8s358.2-330,358.2-522.8
					C870.2,232.2,709.5,71.5,512,71.5z M512,904.1c-20.7-2.6-93.3-55.7-178.5-173.7c-81-112.2-131.3-227.4-131.3-300.7
					c0-170.8,139-309.8,309.8-309.8c170.8,0,309.8,139,309.8,309.8c0,73.3-50.3,188.5-131.3,300.7
					C605.3,848.4,532.6,901.4,512,904.1z"/>
			</g>
			<g>
				<linearGradient id="SVGID_2_" gradientUnits="userSpaceOnUse" x1="298.8551" y1="245.987" x2="725.144" y2="672.2759">
					<stop  offset="0" style="stop-color:#002635;stop-opacity:0"/>
					<stop  offset="1" style="stop-color:#013440"/>
				</linearGradient>
				<path class="st8" d="M512,873.7c-66.1-29.4-280.8-292.4-280.8-444C231.2,274.9,357.2,149,512,149
					c154.8,0,280.8,125.9,280.8,280.8C792.8,581.3,578.1,844.3,512,873.7z"/>
			</g>
			<g>
				<linearGradient id="SVGID_3_" gradientUnits="userSpaceOnUse" x1="512" y1="873.7164" x2="512" y2="429.7088">
					<stop  offset="0" style="stop-color:#AB1A25"/>
					<stop  offset="0.33" style="stop-color:#AB1A25"/>
					<stop  offset="1" style="stop-color:#D97925"/>
				</linearGradient>
				<path class="st9" d="M792.8,429.7c0,151.6-214.7,414.6-280.8,444c-66.1-29.4-280.8-292.4-280.8-444H792.8z"/>
			</g>
			<linearGradient id="SVGID_4_" gradientUnits="userSpaceOnUse" x1="371.1297" y1="570.9781" x2="652.8702" y2="289.2375">
				<stop  offset="0" style="stop-color:#D97925"/>
				<stop  offset="1" style="stop-color:#AB1A25"/>
			</linearGradient>
			<path class="st10" d="M231.2,429.7c0,0,58.1-79.9,280.8-79.9s280.8,79.9,280.8,79.9s-58.1,88.3-280.8,88.3
				S231.2,429.7,231.2,429.7z"/>
		</g>
	</g>
</g>
</svg>
